<svg version="1.2" xmlns="http://www.w3.org/2000/svg" viewBox="0 0 893 183" width="893" height="183"><defs><clipPath clipPathUnits="userSpaceOnUse" id="cp1"><path d="m0 21h821.57v161.34h-821.57z"/></clipPath><linearGradient id="P" gradientUnits="userSpaceOnUse"/><linearGradient id="g1" x1="184.7" y1="101.7" x2="237.7" y2="101.7" href="#P"><stop stop-color="#74de71"/><stop offset="1" stop-color="#4aa16a"/></linearGradient><linearGradient id="g2" x1="579" y1="101.3" x2="638.6" y2="101.3" href="#P"><stop stop-color="#74de71"/><stop offset="1" stop-color="#4aa16a"/></linearGradient></defs><style>.a{fill:#fff}.b{fill:url(#g1)}.c{fill:url(#g2)}</style><g clip-path="url(#cp1)"><path class="a" d="m113.6 182.3v-161.2h-18.8v71h-76v-71h-18.8v161.2h18.8v-71.8h76v71.8z"/><path fill-rule="evenodd" class="a" d="m821.6 101.5c0 44.4-37 80.5-82.5 80.5l-46.5 0.3v-161.3h46.5c45.5 0 82.5 36.1 82.5 80.5zm-17.6 0c0-34.9-29.1-63.3-64.9-63.3h-29v126.8l28.9-0.2c17.4 0 33.7-6.6 46-18.5 12.2-12 19-27.9 19-44.8z"/><path class="a" d="m391.9 139.6l1.5-2.7 1.5 2.7c14.4 26.1 42.2 42.4 72.5 42.4l46.6 0.3v-89.8h-59.1v17.7h41.5v54.8l-28.9-0.2c-17.3 0-33.6-6.6-45.9-18.6-12.3-11.9-19-27.8-19-44.7 0-34.9 29.1-63.4 64.9-63.4h46.5v-17.1h-46.5c-23.9 0-46.8 10.1-62.7 27.8-6.8 8-15.7 21.5-19.5 40.1-0.8 4.6-1.1 9.1-1.6 14.8l-0.2 1.9c-0.4 5.2-0.9 10.7-2.6 15.9-1.1 3.1-2.4 6.2-4 9.1-3 5.7-7 11-11.8 15.7-12.2 11.9-28.5 18.5-45.9 18.5l-28.9 0.2v-126.8h29c20.6 0 40.5 10 52.6 26.4 2.3-5.8 5.4-11.2 9.1-16.3-15.7-17.4-38.1-27.3-61.7-27.3h-46.6v161.3l46.6-0.3c30.3 0 58.1-16.3 72.6-42.4z"/><path class="b" d="m237.6 92.4l-52.9 0.1v18.3l53-0.1z"/><path class="a" d="m237.7 158.4l-76.8-56.7 76.8-56.8v-22.4l-88.1 65.1v28.1l88.1 65.1z"/><path class="c" d="m638.6 92h-59.6v18.3h59.6z"/><path class="a" d="m657.4 38.4v-17.4h-107.4v161.3h107.4v-17.3h-89.8v-126.6z"/></g><path class="a" d="m817.2 6.8v-6.8h32.3v6.8h-11.6v28.2h-9v-28.2zm36.9 28.2v-35h11.5l7.9 18.7 8-18.7h11.5v35h-8.5v-25.6l-8.1 18.9h-5.7l-8.1-18.9v25.6z"/></svg>